<?xml version="1.0" encoding="windows-1252"?>
<!-- Generator: Adobe Illustrator 18.0.0, SVG Export Plug-In . SVG Version: 6.00 Build 0)  -->
<!DOCTYPE svg PUBLIC "-//W3C//DTD SVG 1.1//EN" "http://www.w3.org/Graphics/SVG/1.1/DTD/svg11.dtd">
<svg version="1.1" id="Capa_1" xmlns="http://www.w3.org/2000/svg" xmlns:xlink="http://www.w3.org/1999/xlink" x="0px" y="0px" viewBox="0 0 451.221 451.221" style="enable-background:new 0 0 451.221 451.221;" xml:space="preserve">
<path d="M61.23,334.97c33.74,0,61.192-27.431,61.231-61.163l49.512-15.628c15.426,27.809,45.09,46.675,79.08,46.675  c18.07,0,34.916-5.334,49.052-14.506l45.271,48.325c-4.089,7.782-6.416,16.628-6.416,26.011c0,30.95,25.181,56.13,56.131,56.13  s56.13-25.18,56.13-56.13s-25.18-56.13-56.13-56.13c-8.084,0-15.766,1.731-22.717,4.821L326.41,264.31  c9.483-14.294,15.017-31.426,15.017-49.828c0-19.558-6.248-37.683-16.849-52.489l23.981-24.606  c7.213,3.379,15.252,5.279,23.728,5.279c30.95,0,56.13-25.18,56.13-56.13s-25.18-56.13-56.13-56.13s-56.13,25.18-56.13,56.13  c0,8.989,2.136,17.484,5.908,25.024l-24.704,25.348c-13.553-8.12-29.394-12.795-46.309-12.795c-49.831,0-90.371,40.539-90.371,90.37  c0,2.812,0.136,5.593,0.389,8.34l-49.783,15.714c-11.094-15.73-29.389-26.033-50.058-26.033C27.468,212.503,0,239.972,0,273.735  C0,307.5,27.468,334.97,61.23,334.97z"/>
<g>
</g>
<g>
</g>
<g>
</g>
<g>
</g>
<g>
</g>
<g>
</g>
<g>
</g>
<g>
</g>
<g>
</g>
<g>
</g>
<g>
</g>
<g>
</g>
<g>
</g>
<g>
</g>
<g>
</g>
</svg>